<?xml version="1.0" standalone="no"?>
<!DOCTYPE svg PUBLIC "-//W3C//DTD SVG 20010904//EN"
 "http://www.w3.org/TR/2001/REC-SVG-20010904/DTD/svg10.dtd">
<svg version="1.0" xmlns="http://www.w3.org/2000/svg"
 width="1024.000000pt" height="1024.000000pt" viewBox="0 0 1024.000000 1024.000000"
 preserveAspectRatio="xMidYMid meet">
<metadata>
Created by potrace 1.14, written by Peter Selinger 2001-2017
</metadata>
<g transform="translate(0.000000,1024.000000) scale(0.100000,-0.100000)"
fill="#000000" stroke="none">
<path d="M0 5120 l0 -5120 5120 0 5120 0 0 5120 0 5120 -5120 0 -5120 0 0
-5120z m5261 3039 c182 -77 356 -263 438 -470 43 -109 61 -211 61 -342 0 -105
-5 -133 -54 -331 -29 -119 -56 -219 -59 -223 -4 -3 -48 4 -99 15 -283 65 -529
67 -790 7 -57 -13 -110 -26 -119 -30 -14 -5 -20 7 -34 72 -9 43 -31 132 -48
198 -29 111 -31 132 -32 290 0 194 12 255 75 392 98 211 254 364 443 434 65
24 142 20 218 -12z m229 -1554 c450 -93 841 -336 1128 -702 95 -120 202 -308
185 -323 -10 -9 -173 -63 -177 -59 -2 2 -21 36 -44 75 -57 99 -163 233 -268
339 -315 320 -735 495 -1184 495 l-90 0 0 98 c0 54 3 102 8 107 15 16 314 -4
442 -30z m-632 -317 l-3 -322 -90 -26 c-121 -35 -172 -59 -268 -127 l-81 -56
-73 78 c-40 43 -73 81 -73 84 1 22 205 143 307 183 l83 32 0 113 c0 130 4 126
-92 89 -240 -90 -487 -262 -658 -459 l-81 -92 119 -5 119 -5 84 -72 c47 -40
136 -120 197 -178 l112 -107 0 -239 0 -239 -155 0 c-126 0 -155 3 -155 14 0
33 45 158 88 245 l47 94 -105 100 c-58 54 -127 116 -153 138 l-49 39 -264 0
-264 0 31 62 c92 182 304 444 469 580 100 83 253 180 375 239 174 84 401 156
503 158 l32 1 -2 -322z m-1193 266 c67 -14 169 -56 208 -86 17 -12 12 -19 -60
-90 -71 -69 -82 -76 -120 -76 -208 -3 -504 -247 -762 -629 -69 -102 -187 -344
-224 -460 -64 -198 -72 -249 -72 -453 0 -209 15 -287 79 -437 19 -46 31 -83
25 -83 -21 0 -117 71 -162 119 -160 171 -250 443 -251 756 0 270 52 474 189
747 174 346 446 601 729 683 119 35 281 38 421 9z m3325 -4 c427 -102 817
-588 931 -1162 30 -146 30 -403 0 -540 -51 -241 -154 -437 -284 -539 -58 -46
-106 -73 -115 -65 -3 4 11 39 31 80 74 149 107 355 88 547 -31 313 -197 690
-439 994 -204 255 -456 435 -612 435 -37 0 -50 8 -123 72 -45 40 -82 77 -82
83 0 16 126 74 207 95 103 27 284 27 398 0z m-1607 -355 c378 -66 734 -284
926 -568 18 -27 31 -50 29 -52 -1 -1 -30 -17 -63 -34 -33 -17 -78 -44 -100
-60 -185 -138 -270 -180 -334 -166 -17 4 -64 31 -103 61 -39 30 -77 54 -85 54
-10 0 -13 -30 -13 -139 l0 -139 163 -6 c89 -3 191 -5 227 -3 l65 2 16 -60 c10
-33 18 -79 18 -102 l1 -43 -245 0 -245 0 0 -100 0 -100 685 0 685 0 0 -39 c0
-21 -3 -66 -6 -100 l-7 -61 -783 0 -784 0 0 601 0 602 37 -6 c54 -9 248 -108
323 -166 l65 -49 35 21 c19 12 56 36 82 55 57 40 56 46 -32 122 -171 148 -395
244 -602 257 l-98 6 0 -827 0 -828 441 7 442 7 -7 -29 c-4 -15 -23 -59 -43
-98 -122 -240 -298 -400 -537 -490 -100 -38 -195 -55 -331 -62 -189 -9 -341
12 -492 69 l-53 19 0 190 0 189 -100 0 -100 0 0 -120 c0 -66 -3 -120 -6 -120
-17 0 -94 73 -147 140 -57 72 -157 256 -157 289 0 14 37 16 353 16 l352 0 3
-229 2 -228 243 4 c264 5 337 17 449 74 58 29 148 96 188 138 21 23 22 29 10
36 -22 14 -161 11 -275 -5 -106 -16 -272 -19 -374 -9 l-62 7 1 206 2 206 -572
3 -572 2 7 -65 c16 -155 83 -340 171 -476 l54 -84 -43 -39 c-51 -46 -373 -296
-404 -313 -13 -7 -27 -13 -32 -13 -10 0 -133 178 -176 256 -16 28 -26 58 -22
66 3 10 35 23 82 34 l77 18 19 -23 c10 -12 27 -34 36 -47 l19 -25 87 66 c48
36 86 69 84 73 -3 4 -26 44 -52 90 l-47 82 -71 0 c-61 0 -201 -29 -319 -66
-13 -4 -21 11 -41 73 -22 70 -47 162 -47 177 0 3 94 6 209 6 l208 0 7 53 c3
28 6 121 6 205 l0 152 665 0 665 0 2 308 c1 169 1 499 -1 735 l-4 427 130 0
c72 0 169 -7 216 -15z m-523 -856 l0 -401 -97 4 -98 5 -3 299 -2 300 -40 39
c-22 22 -40 43 -40 47 0 20 205 106 258 107 l22 1 0 -401z m-904 -21 c59 -50
76 -79 55 -92 -12 -8 -66 -160 -75 -211 -14 -80 -6 -75 -123 -75 l-106 0 7 47
c16 119 69 271 124 360 30 48 28 49 118 -29z m2527 5 c51 -114 97 -283 97
-354 l0 -29 -104 0 c-112 0 -116 2 -116 57 0 39 -38 176 -67 243 -14 33 -24
62 -22 63 27 17 158 76 170 77 10 0 26 -21 42 -57z m436 -11 c40 -114 60 -198
67 -287 l7 -85 -96 0 -96 0 -6 48 c-10 81 -36 190 -61 264 -13 40 -24 77 -24
83 0 9 112 38 170 43 10 1 23 -21 39 -66z m-3334 33 c-1 -5 -11 -41 -23 -79
-49 -153 -63 -250 -69 -488 l-6 -227 -113 -3 -114 -3 0 165 c0 243 36 486 93
622 l14 33 109 -5 c63 -3 109 -9 109 -15z m3385 -1027 c0 -30 -52 -228 -60
-228 -4 0 -33 9 -65 20 -48 16 -84 20 -206 20 l-148 0 -54 -104 c-105 -201
-272 -399 -434 -516 -142 -102 -390 -212 -530 -235 l-43 -7 0 104 0 103 93 29
c193 58 328 138 475 280 145 140 246 289 309 456 l32 85 113 6 c62 3 204 5
316 5 189 0 202 -1 202 -18z m-235 -409 c93 -16 94 -17 56 -93 -113 -229 -348
-506 -576 -678 -113 -85 -326 -194 -472 -242 -109 -36 -293 -79 -301 -71 -2 2
-5 55 -6 116 l-1 113 40 9 c474 104 866 383 1106 788 46 77 46 77 154 58z
m-2352 -234 c95 -66 206 -119 350 -166 l127 -43 0 -288 0 -288 -22 0 c-21 0
-197 39 -257 56 -24 7 -24 7 -5 -13 14 -15 22 -17 33 -9 11 8 13 8 7 -1 -12
-20 39 -39 59 -23 14 11 18 11 25 1 7 -13 47 -20 128 -23 30 -1 32 -4 32 -35
0 -28 -3 -33 -17 -29 -10 3 -47 12 -83 21 -36 9 -85 22 -110 30 -25 8 -78 23
-118 35 -40 12 -70 25 -67 30 3 6 -1 7 -9 4 -18 -7 -218 88 -311 148 -57 36
-262 193 -299 228 -18 17 18 72 76 116 l59 46 97 -75 c108 -83 196 -139 303
-192 75 -38 213 -92 254 -99 l25 -5 0 103 0 103 -105 46 c-57 25 -139 66 -182
92 -90 53 -208 146 -208 163 0 13 124 111 142 112 7 0 41 -20 76 -45z m857
-550 l0 -324 -95 -3 -95 -3 0 140 c0 77 -3 224 -7 327 l-6 187 94 3 c52 2 97
2 102 0 4 -2 7 -149 7 -327z m1650 204 c172 -300 204 -542 105 -780 -61 -146
-154 -252 -272 -311 -58 -28 -68 -30 -146 -26 -89 5 -160 30 -165 60 -2 9 20
52 49 95 29 43 73 122 97 177 79 180 151 481 152 634 1 104 12 142 61 205 24
31 47 57 50 57 3 0 34 -50 69 -111z m-3381 35 l51 -67 0 -81 c0 -101 20 -223
64 -392 51 -194 122 -360 208 -487 22 -33 37 -65 34 -72 -11 -30 -70 -49 -169
-53 -89 -4 -101 -2 -151 22 -135 66 -249 223 -302 417 -26 93 -23 268 5 374
31 117 175 405 202 405 4 0 30 -30 58 -66z m2047 -799 c-32 -121 -105 -255
-199 -364 -55 -64 -150 -147 -193 -168 -28 -14 -34 -14 -63 1 -83 44 -249 233
-316 361 -37 69 -82 201 -73 210 3 3 46 -2 96 -11 l89 -17 18 -56 c38 -123
132 -262 203 -300 21 -11 28 -7 91 56 72 72 121 158 142 250 l12 50 79 12 c44
7 90 16 101 20 12 5 23 8 24 7 1 -1 -4 -24 -11 -51z m-1773 -392 c-7 -2 -19
-2 -25 0 -7 3 -2 5 12 5 14 0 19 -2 13 -5z"/>
<path d="M4769 7781 c-41 -40 -41 -42 -37 -98 4 -48 10 -61 37 -85 55 -50 153
-32 187 34 41 79 -11 175 -100 185 -43 5 -48 3 -87 -36z"/>
<path d="M5361 7807 c-61 -31 -86 -123 -48 -177 38 -54 112 -75 171 -49 36 17
59 72 53 128 -10 86 -101 137 -176 98z"/>
<path d="M3480 3831 c5 -11 15 -23 21 -27 6 -3 3 5 -6 20 -20 30 -30 35 -15 7z"/>
<path d="M5535 2900 c-28 -7 -28 -8 -5 -9 14 0 32 4 40 9 17 11 8 11 -35 0z"/>
<path d="M5468 2883 c6 -2 18 -2 25 0 6 3 1 5 -13 5 -14 0 -19 -2 -12 -5z"/>
<path d="M4277 3059 c7 -7 15 -10 18 -7 3 3 -2 9 -12 12 -14 6 -15 5 -6 -5z"/>
<path d="M4440 2987 c0 -3 15 -10 32 -16 18 -6 28 -7 23 -2 -12 10 -55 25 -55
18z"/>
<path d="M4687 2869 c7 -7 15 -10 18 -7 3 3 -2 9 -12 12 -14 6 -15 5 -6 -5z"/>
<path d="M4808 2833 c6 -2 18 -2 25 0 6 3 1 5 -13 5 -14 0 -19 -2 -12 -5z"/>
</g>
</svg>
